<svg xmlns="http://www.w3.org/2000/svg" viewBox="0 0 448 512"><!--!Font Awesome Free 6.6.0 by @fontawesome - https://fontawesome.com License - https://fontawesome.com/license/free Copyright 2024 Fonticons, Inc.--><path d="M443.4 64H4.6c0 103.3 22.2 180.1 43.4 222.4C112 414.1 224 448 225.3 448a312.8 312.8 0 0 0 140.6-103.5c25.9-33.9 53.1-87.2 65.9-145.8H171.8c4.1 36.4 22.2 67.9 45.1 86.9h88.6c-17 28.2-48.2 54.4-80.5 69.5-31.2-13.3-69.1-46.5-96.5-98.4-26.7-53.8-27.1-105.9-27.1-105.9H437.6A625.9 625.9 0 0 0 443.4 64z"/></svg>